<?xml version="1.0" standalone="no"?>
<svg class="home_blob" viewBox="0 0 200 200" xmlns="http://www.w3.org/2000/svg" xmlns:xlink="http://www.w3.org/1999/xlink">
	<mask class="" id="mask0" mask-type="alpha">
		<path fill="#0F62FE" d="M41.4,-62.9C54.6,-55.9,66.8,-46,75.1,-32.9C83.3,-19.7,87.5,-3.3,86.4,13.2C85.2,29.7,78.8,46.2,67.6,58C56.5,69.8,40.6,76.9,24.9,78.8C9.2,80.6,-6.3,77.3,-21.2,72.7C-36.2,68.2,-50.7,62.3,-60.2,51.9C-69.6,41.4,-74,26.3,-76.5,10.8C-79,-4.7,-79.8,-20.7,-74.4,-34.6C-69,-48.4,-57.5,-60,-44.1,-66.9C-30.7,-73.7,-15.3,-75.9,-0.6,-74.9C14.1,-73.9,28.2,-69.9,41.4,-62.9Z" transform="translate(100 100)" />
	</mask>
	<g mask="url(#mask0)">
		<path fill="#0F62FE" d="M41.4,-62.9C54.6,-55.9,66.8,-46,75.1,-32.9C83.3,-19.7,87.5,-3.3,86.4,13.2C85.2,29.7,78.8,46.2,67.6,58C56.5,69.8,40.6,76.9,24.9,78.8C9.2,80.6,-6.3,77.3,-21.2,72.7C-36.2,68.2,-50.7,62.3,-60.2,51.9C-69.6,41.4,-74,26.3,-76.5,10.8C-79,-4.7,-79.8,-20.7,-74.4,-34.6C-69,-48.4,-57.5,-60,-44.1,-66.9C-30.7,-73.7,-15.3,-75.9,-0.6,-74.9C14.1,-73.9,28.2,-69.9,41.4,-62.9Z" transform="translate(100 100)" />
		<image xlink:href=""/>
	</g>
</svg>
